<svg width="400" height="115" viewBox="0 0 400 115" fill="none" xmlns="http://www.w3.org/2000/svg">
<path d="M57.9501 91.2999L41.6 93.5499L31.75 22.5999L7.50005 26.2499L5.55005 12.1499L70.45 3.1499L72.4 17.2499L48.1 20.3499L57.9501 91.2999Z" fill="#F7C767"/>
<path d="M172.25 75C171.65 76.25 170.8 77.6 169.75 79C168.7 80.4 167.4 81.7 165.9 82.95C164.4 84.15 162.65 85.2 160.7 86.1C158.75 87 156.55 87.55 154.15 87.85C147.85 88.65 142.6 87.35 138.45 84.05C134.3 80.75 131.7 75 130.7 66.85L126.1 29.55L139.35 27.9L143.95 64.95C144.5 69.25 145.8 72.3 147.9 74.2C150 76.05 152.7 76.8 156 76.4C159.6 75.95 162.6 74.6 165 72.3C167.4 70 169.35 67.45 170.9 64.6L165.95 24.65L179.3 23L186.2 78.85C186.85 84.15 186.7 88.8 185.75 92.85C184.8 96.9 183.2 100.3 180.95 103.1C178.7 105.9 175.85 108.1 172.45 109.7C169 111.3 165.15 112.4 160.75 112.95C156.4 113.5 152.15 113.45 148 112.85C143.85 112.25 140.45 111.25 137.7 109.9L139.7 99.05C145.6 101.75 151.65 102.7 157.95 101.9C163.4 101.2 167.5 99.3 170.25 96.15C172.95 93 173.9 87.9 173 80.85L172.25 75Z" fill="#EE7B51"/>
<path d="M62.2499 60.3501C61.6999 56.0001 61.7999 51.8001 62.5499 47.7501C63.2999 43.7501 64.6999 40.1501 66.7999 36.9501C68.8999 33.7501 71.6499 31.1001 75.1499 29.0001C78.6499 26.9001 82.8999 25.5501 87.9499 24.9501C92.9999 24.3501 97.4499 24.6001 101.35 25.8001C105.25 27.0001 108.6 28.8501 111.45 31.4501C114.3 34.0501 116.55 37.2001 118.2 40.9001C119.85 44.6001 120.95 48.6501 121.5 53.0501C122.05 57.5001 121.95 61.7501 121.25 65.7501C120.55 69.7501 119.15 73.3501 117 76.5501C114.9 79.7501 112.05 82.4001 108.55 84.5001C105.05 86.6001 100.8 87.9501 95.7499 88.5501C90.6999 89.1501 86.2499 88.9001 82.3499 87.7001C78.4499 86.5001 75.0999 84.6501 72.2999 82.0501C69.4999 79.4501 67.2499 76.3001 65.5499 72.6001C63.9499 68.9001 62.7999 64.8001 62.2499 60.3501ZM75.5999 58.7001C76.3999 65.1001 78.3499 70.1001 81.3999 73.7001C84.4999 77.3501 88.8499 78.8001 94.4999 78.1001C100.15 77.4001 104.05 74.9001 106.2 70.6501C108.35 66.4001 109.05 61.0501 108.25 54.6501C107.45 48.3501 105.5 43.4001 102.4 39.7501C99.2499 36.1501 94.8999 34.6501 89.2499 35.3501C83.5999 36.0501 79.7499 38.5501 77.6499 42.8001C75.4999 47.1001 74.8499 52.4001 75.5999 58.7001Z" fill="#F7C767"/>
<path d="M278.25 24.7499L291.6 23.1499L298.9 84.0499L287.45 85.4499L284.45 76.5999C283.75 77.8999 282.85 79.1999 281.8 80.5499C280.75 81.8999 279.45 83.1999 277.9 84.3999C276.4 85.5999 274.65 86.6499 272.7 87.5999C270.75 88.4999 268.6 89.0999 266.15 89.3999C259.85 90.1499 254.65 88.8499 250.55 85.4999C246.45 82.1499 243.9 76.3999 242.9 68.2499L238.25 29.5499L251.5 27.9499L256.1 66.3999C256.6 70.6999 257.9 73.7999 259.95 75.6499C262 77.5499 264.7 78.2999 267.95 77.8999C271.55 77.4499 274.6 76.0999 277.05 73.7999C279.5 71.4999 281.55 68.9499 283.15 66.0999L278.25 24.7499Z" fill="#2CA4D3"/>
<path d="M296.2 5.4L309.55 3.75L313.55 36.4C314.25 35.2 315.2 33.95 316.35 32.6C317.5 31.25 318.85 30 320.45 28.85C322 27.7 323.8 26.65 325.75 25.75C327.75 24.85 329.9 24.3 332.25 24C336.35 23.5 340.05 23.95 343.25 25.35C346.45 26.75 349.2 28.75 351.45 31.4C353.75 34 355.6 37.15 357 40.75C358.4 44.35 359.35 48.1 359.85 52C360.5 57.3 360.45 62.05 359.7 66.3C358.95 70.55 357.6 74.15 355.65 77.2C353.7 80.25 351.3 82.7 348.4 84.5C345.5 86.3 342.3 87.4 338.75 87.85C334.15 88.4 330.15 87.8 326.75 86.05C323.4 84.3 320.75 82.15 318.8 79.65L318 88.95L306.55 90.35L296.2 5.4ZM316.4 59.5C316.75 62.45 317.5 65.05 318.6 67.35C319.7 69.65 321.05 71.55 322.65 73.05C324.25 74.55 326.05 75.65 328.05 76.35C330.05 77.05 332.1 77.25 334.2 77C336.2 76.75 338.1 76.15 339.85 75.15C341.6 74.15 343.05 72.75 344.2 70.9C345.35 69.05 346.15 66.7 346.6 63.85C347.05 61 347.05 57.55 346.55 53.6C345.8 47.3 343.9 42.6 341 39.5C338.05 36.4 334.45 35.1 330.15 35.65C326.8 36.05 323.8 37.3 321.2 39.45C318.6 41.55 316.5 44 314.85 46.75L316.4 59.5Z" fill="#2CA4D3"/>
<path d="M378.25 90.8498C375.4 90.5998 373.25 89.4998 371.85 87.6998C370.45 85.8498 369.85 83.7498 370.1 81.3998C370.3 79.0498 371.3 77.0498 373 75.4998C374.7 73.8998 377 73.2498 379.9 73.5498C382.75 73.7998 384.9 74.8998 386.3 76.7498C387.7 78.6498 388.3 80.7498 388.05 83.0998C387.85 85.4498 386.85 87.3998 385.15 88.9498C383.4 90.4498 381.1 91.0998 378.25 90.8498ZM385.5 65.7498L375.9 64.8498L377.65 23.7998L379.55 3.5498L393.45 4.8498L391.5 25.0998L385.5 65.7498Z" fill="#8DBD35"/>
<path d="M212.1 78.8502C216.4 78.8502 219.5 78.1502 221.3 76.7002C223.1 75.2502 224.05 73.4502 224.05 71.2502C224.05 68.4502 222.8 66.3502 220.3 64.9002C217.8 63.4502 214.7 62.2002 210.95 61.1002C208.25 60.3502 205.7 59.4502 203.4 58.4502C201.05 57.4502 199.1 56.2002 197.45 54.7002C195.8 53.2002 194.5 51.5002 193.6 49.5002C192.65 47.5002 192.2 45.1002 192.2 42.3002C192.2 36.9502 194.25 32.8002 198.4 29.7502C202.55 26.7002 208.2 25.2002 215.4 25.2002C218.95 25.2002 222.4 25.5502 225.75 26.2002C229.1 26.9002 232.2 27.9502 235.1 29.3502L232.05 39.4002C227.3 36.9502 222.05 35.7002 216.3 35.7002C212.4 35.7002 209.6 36.3002 207.85 37.5002C206.1 38.7002 205.25 40.3002 205.25 42.3502C205.25 44.6502 206.2 46.3502 208.05 47.5502C209.9 48.7502 212.45 49.8502 215.65 50.8502C219.1 52.0502 222.2 53.2502 224.85 54.4502C227.5 55.7002 229.75 57.1002 231.6 58.7002C233.4 60.3002 234.8 62.1502 235.75 64.3002C236.7 66.4002 237.15 68.8502 237.15 71.6502C237.15 76.8002 235.15 81.0502 231.1 84.3502C227.1 87.6502 220.95 89.3002 212.75 89.3002C208.7 89.3002 204.85 88.9502 201.2 88.2002C197.55 87.5002 194.45 86.4002 191.8 84.9502L194.85 74.9002C197.15 76.1002 199.8 77.0502 202.8 77.7502C205.8 78.5002 208.9 78.8502 212.1 78.8502Z" fill="#2CA4D3"/>
</svg>
